<svg width="56" height="30" viewBox="0 0 56 30" fill="none" xmlns="http://www.w3.org/2000/svg">
<path d="M51.403 0H24.6923C21.0463 0 16.2907 0 13.477 4.95376L1.66721 25.0462C0.00274086 27.7807 1.42942 30 4.52057 30H35.551C38.7214 30 40.7425 29.0489 43.2392 25.0462L55.049 4.95376C56.5946 2.37781 54.2168 0 51.403 0ZM36.3832 7.68824L27.5457 22.6684C26.3568 24.8085 25.2868 25.0462 22.5919 25.0462C19.8574 25.0462 19.1837 24.0951 19.9763 22.6684L28.9327 7.68824C30.2405 5.42933 31.7861 4.95376 34.0054 4.95376C36.2643 4.95376 37.5721 5.66711 36.3832 7.68824Z" fill="white"/>
</svg>
