<svg width="86" height="30" viewBox="0 0 86 30" fill="none" xmlns="http://www.w3.org/2000/svg">
<path d="M81.5984 0H47.358L32.6156 25.0462H0V30H65.786C70.1453 30 71.572 27.86 72.5231 26.2351L76.0502 20.0925C77.0013 18.428 77.0013 16.5654 75.0991 15.4954C77.0013 15.4954 79.5773 14.1876 81.1229 11.4927L84.6499 5.46896C86.4729 2.4967 84.3329 0 81.5984 0ZM64.0026 20.2114L62.2193 23.0251C61.7437 23.9762 60.9115 25.0462 58.93 25.0462H50.1717L54.6896 17.4769H63.1704C64.716 17.4769 64.716 18.9036 64.0026 20.2114ZM71.4531 7.68824L69.6698 10.5416C69.1942 11.4927 68.362 12.5627 66.3805 12.5627H57.6222L62.1004 4.9934H70.6209C72.1665 4.95377 72.1665 6.38045 71.4531 7.68824Z" fill="white"/>
</svg>
