<svg width="55" height="30" viewBox="0 0 55 30" fill="none" xmlns="http://www.w3.org/2000/svg">
<path d="M43.6662 12.5231H26.1893L29.0427 7.68824C30.2316 5.66711 31.3016 4.95376 33.0453 4.95376C34.8287 4.95376 35.4231 6.38045 34.472 8.12418H52.3056L54.0889 4.95376C55.3967 2.57596 55.3967 0 52.1867 0H20.76C17.9066 0 15.6873 0.356671 14.0229 3.09115L8.47465 12.5231C6.92908 15.2576 7.04797 17.4769 10.8525 17.4769H28.9238L25.9912 22.6684C25.1589 24.0951 24.0889 25.0462 21.6319 25.0462C19.4918 25.0462 19.6107 23.6196 20.5618 22.2325H2.84718L0.707158 25.7596C-0.600636 28.0185 0.46937 30 3.56052 30H34.7494C37.6028 30 40.0599 28.6922 41.4866 26.354L46.797 17.4769C47.9066 15.2576 47.3122 12.5231 43.6662 12.5231Z" fill="white"/>
</svg>
