<svg width="25" height="54" viewBox="0 0 25 54" fill="none" xmlns="http://www.w3.org/2000/svg">
<path d="M5.54985 10.2981C5.54985 11.6374 5.597 18.1903 5.597 18.1903H0V26.5858L5.54985 26.5704L5.597 53.1715H16.791V26.5858L23.9602 26.5704C23.9602 26.5704 24.5017 22.8835 24.8367 18.1903C23.8749 18.1903 16.791 18.1903 16.791 18.1903C16.791 18.1903 16.609 12.3765 16.609 11.4643C16.609 10.5498 17.8101 9.31915 18.9975 9.31915H25C25 8.10041 25 3.88922 25 0C21.9078 0 18.3902 0 16.8387 0C5.27742 0 5.54985 8.95996 5.54985 10.2981Z" fill="#676767"/>
</svg>
