<svg width="45" height="37" viewBox="0 0 45 37" fill="none" xmlns="http://www.w3.org/2000/svg">
<path d="M40.3083 0.861816H4.86168C2.42472 0.861816 0.453001 2.85569 0.453001 5.29265L0.430847 31.8777C0.430847 34.3146 2.42472 36.3085 4.86168 36.3085H40.3083C42.7453 36.3085 44.7392 34.3146 44.7392 31.8777V5.29265C44.7392 2.85569 42.7453 0.861816 40.3083 0.861816ZM39.4222 10.2773L23.7592 20.0695C23.0503 20.5126 22.1198 20.5126 21.4108 20.0695L5.74785 10.2773C5.19399 9.92287 4.86168 9.32471 4.86168 8.68224C4.86168 7.19791 6.47894 6.31174 7.74172 7.08714L22.585 16.3697L37.4283 7.08714C38.6911 6.31174 40.3083 7.19791 40.3083 8.68224C40.3083 9.32471 39.976 9.92287 39.4222 10.2773Z" fill="#676767"/>
</svg>
