<svg width="80" height="54" viewBox="0 0 80 54" fill="none" xmlns="http://www.w3.org/2000/svg">
<path d="M78.0455 8.33851C77.6064 6.74721 76.73 5.2923 75.5042 4.11965C74.278 2.94701 72.7457 2.09783 71.0602 1.65726C64.8235 0.0162354 39.8346 0.016235 39.8346 0.016235C29.4149 -0.101432 18.998 0.420613 8.6506 1.57911C6.96464 2.05187 5.43471 2.9206 4.20524 4.10331C2.97579 5.28599 2.08735 6.74359 1.6238 8.33851C0.505901 14.3632 -0.0367799 20.4698 0.00223043 26.5849C-0.0394551 32.7004 0.503247 38.8072 1.6238 44.8317C2.0778 46.4222 2.96433 47.8745 4.1963 49.0462C5.42827 50.2175 6.96328 51.0674 8.6506 51.5127C14.9706 53.1537 39.8346 53.1537 39.8346 53.1537C50.2681 53.2716 60.699 52.7495 71.0602 51.5908C72.7457 51.1504 74.278 50.3012 75.5042 49.1285C76.73 47.9559 77.6064 46.5009 78.0455 44.9097C79.1919 38.8879 79.7486 32.7804 79.7087 26.6633C79.7947 20.5186 79.2374 14.3808 78.0455 8.33851ZM31.8931 37.955V15.2152L52.6826 26.5849L31.8931 37.955Z" fill="#676767"/>
</svg>
